<svg width="654" height="245" viewBox="0 0 654 245" fill="none" xmlns="http://www.w3.org/2000/svg">
<path d="M384 126H428V135.284H384V126Z" fill="black"/>
<path d="M461 126H505V135.284H461V126Z" fill="black"/>
<path d="M531 126H575V135.284H531V126Z" fill="black"/>
<path d="M586 126H630V135.284H586V126Z" fill="black"/>
<path d="M180 126H266V135.284H180V126Z" fill="#15803D"/>
<path d="M214 0L243.5 57.2404L253 0H281L266 91.0004H237.08L207 36L198.15 91L171 91.0004L185.5 0H214Z" fill="black"/>
<path d="M393 0L391.554 16.3601H340.834L337.794 36.2001H385.314L383.874 51.5601H335.5L331.554 76.2001H385.314L383.874 91.0004H296L311 0H393Z" fill="black"/>
<path d="M462.504 3H487.144L491.624 56.2001L513.224 0H539.304L502.504 91.5601H474.824L468.584 47.0801L450.184 91.5601H422.504L410.5 0H437.864L442.504 56.2001L462.504 3Z" fill="black"/>
<path d="M613.021 73.1601L616.061 54.7601H554.621L562.5 0H653.06L649.821 27.0801H619.101L620.701 16.3601H591.421L586.781 39.4001H648.221L642.141 80.8401C642.141 82.3335 641.768 83.7735 641.021 85.1601C640.381 86.4401 639.475 87.5601 638.301 88.5201C637.128 89.4801 635.795 90.2268 634.301 90.7601C632.915 91.2935 631.421 91.5601 629.821 91.5601H549.981L552.5 73.1601H613.021Z" fill="black"/>
<path d="M228.44 126L227.576 135.216H197.144L195.32 147.12H223.832L222.968 156.336H193.4L191.576 171.12H223.832L222.648 181H171L180 126H228.44Z" fill="black"/>
<path d="M435.082 126.188L432.298 147.308H453.706L457.5 126.284L474.73 126.188L467.338 180.983H448.906L452.554 156.524H431.05L427.69 180.983H409.258L417 126.188H435.082Z" fill="black"/>
<path d="M540.534 126.188L539.67 135.404H509.238L507.414 147.308H535.926L535.062 156.524H505.494L503.67 171.308H535.926L535.062 180.983H483.414L491 126.188H540.534Z" fill="black"/>
<path d="M605.854 126.205L604.99 135.421H574.558L572.734 147.325H601.246L600.382 156.541H570.814L568.99 171.325H601.246L600.382 181H548.734L557.046 126.205H605.854Z" fill="black"/>
<path d="M640 126L632.608 171.62L640 181H620.704C618.848 181 615.738 179.916 614.778 178.7C613.882 177.484 613.434 175.948 613.434 174.092L621 125.893L640 126Z" fill="black"/>
<path d="M307 126H343V135H307V126Z" fill="#15803D"/>
<path d="M272.285 181L262.109 128.972L260 126H279.392L286.973 164.012L305.689 126H324.121L298.109 181H272.285Z" fill="#15803D"/>
<path d="M340.392 181L329.392 126H347.784L355.08 164.012L373.512 126H391.944L366.216 181H340.392Z" fill="black"/>
<path fill-rule="evenodd" clip-rule="evenodd" d="M223.999 126C224 126.167 224 126.333 224 126.5C224 184.766 176.766 232 118.5 232C60.234 232 13 184.766 13 126.5C13 68.234 60.234 21 118.5 21C129.942 21 140.959 22.8215 151.276 26.1904L153.369 13.2133C142.345 9.82418 130.635 8 118.5 8C53.0543 8 0 61.0543 0 126.5C0 191.946 53.0543 245 118.5 245C183.946 245 237 191.946 237 126.5C237 126.333 237 126.167 236.999 126H223.999Z" fill="#15803D"/>
</svg>
